<svg width="416" height="621" viewBox="0 0 416 621" fill="none" xmlns="http://www.w3.org/2000/svg">
<g clip-path="url(#clip0_129_625)">
<path d="M190.491 102.754L193.102 108.938C190.107 110.828 183.072 113.807 181.579 115.172C179.63 111.742 177.88 110.485 180.623 107.462C183.854 105.773 187.146 104.203 190.491 102.754Z" fill="#8BA8A5"/>
<path d="M193.102 108.938C193.474 109.955 194.443 111.592 193.68 112.531C190.996 115.857 187.788 117.291 183.655 117.815C182.306 116.681 182.364 116.751 181.579 115.171C183.072 113.807 190.108 110.828 193.102 108.938Z" fill="#5F7474"/>
<path d="M253.863 21.94C259.067 17.7748 269.771 11.6284 275.409 18.3533C276.495 19.6362 276.983 21.3246 276.736 22.9888C275.718 29.8732 258.441 36.3983 252.268 39.5418L216.14 58.2653L162.391 85.5709C155.259 89.1964 129.573 103.196 123.101 103.608C115.434 101.111 114.715 92.5778 121.546 88.8182C129.59 84.7768 137.834 80.8522 145.934 76.9008C148.162 75.0217 163.995 66.7821 167.119 66.2678C171.681 66.0436 173.746 52.0243 174.062 48.1005L172.166 46.1698C173.78 44.3079 176.988 42.7396 179.242 41.4614C181.3 40.5848 182.572 39.7893 184.459 38.6548C188.369 36.6252 192.242 34.9008 196.25 33.0876C198.072 31.9469 198.883 31.0672 201.221 31.7364C207.12 33.4293 213.383 36.762 218.89 39.5308L227.985 34.9345C229.326 33.894 233.733 31.8906 235.486 31.0389C241.818 27.7086 247.311 24.8964 253.863 21.94Z" fill="#8BA8A5"/>
<path d="M196.251 33.0874C195.618 35.4375 194.484 35.188 193.184 37.2355L191.864 38.7234C189.546 39.7066 175.394 46.8056 174.063 48.1003L172.166 46.1696C173.78 44.3077 176.988 42.7394 179.242 41.4612C181.3 40.5846 182.573 39.7891 184.459 38.6546C188.37 36.6249 192.242 34.9006 196.251 33.0874Z" fill="#C5D7CE"/>
<path d="M121.547 88.8183C129.591 84.7768 137.834 80.8523 145.935 76.9009C143.618 82.1627 126.364 90.7758 121.547 88.8183Z" fill="#B4C2BF"/>
<path d="M235.486 31.0389C241.818 27.7085 247.311 24.8964 253.863 21.9399L253.684 23.845C250.467 26.2003 240.601 31.5171 236.731 31.6986L235.486 31.0389Z" fill="#C5D7CE"/>
<path d="M193.184 37.2355C195.529 35.9092 202.713 34.1618 204.322 36.7061C202.197 38.3624 194.628 38.8692 191.864 38.7234L193.184 37.2355Z" fill="#97B0A4"/>
<path d="M227.985 34.9346L228.583 36.4362C226.047 38.8206 224.417 39.9331 221.062 40.9864C219.419 40.3766 219.811 40.7788 218.89 39.5309L227.985 34.9346Z" fill="#97B0A4"/>
<path d="M190.992 44.0128C195.329 42.8185 199.818 45.37 201.008 49.7106C202.204 54.0511 199.646 58.536 195.308 59.7255C190.97 60.915 186.489 58.3635 185.298 54.0257C184.107 49.6886 186.656 45.2057 190.992 44.0128Z" fill="#141F1E"/>
<path d="M191.418 45.0049C210.249 48.981 187.54 69.9597 187.121 48.9219C188.584 46.886 189.43 46.413 191.418 45.0049Z" fill="#5F7474"/>
<path d="M191.418 45.0049C192.415 47.4766 192.222 46.5663 191.19 49.5572L189.622 50.759C187.923 50.4318 188.499 50.6064 187.121 48.9219C188.584 46.886 189.43 46.413 191.418 45.0049Z" fill="#B4C2BF"/>
<path d="M123.624 91.226C125.986 90.2387 128.702 91.3443 129.704 93.7005C130.705 96.0568 129.615 98.7802 127.266 99.7957C124.895 100.82 122.144 99.7194 121.134 97.3425C120.124 94.9663 121.241 92.2216 123.624 91.226Z" fill="#141F1E"/>
<path d="M123.839 92.0859C125.721 92.2956 125.936 92.4132 127.55 93.4164C128.455 95.9947 128.134 95.4144 127.534 98.4101C124.495 98.3124 125.458 98.716 123.274 97.2756C122.486 95.237 123.124 94.1239 123.839 92.0859Z" fill="#5F7474"/>
<path d="M267.475 17.7075C269.029 17.1433 270.775 17.4774 272.013 18.5779C273.25 19.6784 273.787 21.3689 273.415 22.9831C273.037 24.5973 271.807 25.8762 270.212 26.3157C267.867 26.9594 265.44 25.6402 264.705 23.3273C263.969 21.0144 265.193 18.5336 267.475 17.7075Z" fill="#020201"/>
<path d="M267.345 19.9805C268.486 19.0669 270.143 19.2196 271.099 20.326C272.054 21.4325 271.965 23.0958 270.892 24.0901C270.163 24.7665 269.125 24.9909 268.184 24.6753C267.242 24.3597 266.547 23.5544 266.369 22.5759C266.197 21.5973 266.568 20.6018 267.345 19.9805Z" fill="#5F7474"/>
<path d="M147.916 80.5177C148.95 79.8776 150.249 79.8467 151.311 80.438C152.373 81.0293 153.033 82.15 153.033 83.3656C153.034 84.5812 152.376 85.7019 151.315 86.2946C149.724 87.1822 147.716 86.637 146.792 85.0673C145.869 83.4969 146.368 81.4769 147.916 80.5177Z" fill="#141F1E"/>
<path d="M242.444 32.3699C243.922 31.3233 245.964 31.6681 247.016 33.1405C248.061 34.613 247.724 36.6573 246.253 37.7099C244.781 38.7653 242.726 38.4236 241.674 36.9474C240.622 35.4705 240.966 33.4196 242.444 32.3699Z" fill="#141F1E"/>
<path d="M201.421 124.869C207.031 124.825 211.465 124.673 217.048 124.208C216.924 148.445 216.532 174.506 217.082 198.596C211.548 197.479 208 197.776 202.487 198.118C201.139 179.718 202.074 161.336 202.191 142.91C202.225 136.697 202.521 131.02 201.421 124.869Z" fill="#8BA8A5"/>
<path d="M196.23 96.194C204.267 92.4063 200.713 96.2834 205.656 97.8517C208.557 97.0356 211.871 95.8241 213.521 93.1825C214.037 85.3891 216.986 85.2832 223.442 82.4395C224.954 85.1546 226.425 88.3483 227.807 91.168C226.095 92.9494 225.745 93.0931 223.524 94.1293L206.316 103.054L205.821 104.927L206.206 105.51C207.402 107.333 207.911 107.962 208.11 110.196C204.742 112.072 202.335 113.254 198.802 114.799L197.399 113.709L195.687 108.442L191.28 98.5124L196.23 96.194Z" fill="#8BA8A5"/>
<path d="M206.315 103.054L205.82 104.927L206.205 105.511C207.402 107.334 207.91 107.962 208.11 110.197C204.741 112.072 202.335 113.255 198.801 114.8L197.398 113.709L195.687 108.443C199.262 106.497 202.665 104.827 206.315 103.054Z" fill="#5F7474"/>
<path d="M162.313 88.6883C166.178 86.8773 170.585 84.4908 174.441 82.5278C176.243 86.0969 176.855 88.0572 178.036 91.7954C176.55 92.4555 169.465 95.9393 168.831 96.1187L164.532 98.3004L161.057 97.3914L159.092 96.7011C158.368 96.2975 153.646 94.668 152.576 94.2809C153.696 92.6555 160.253 89.6942 162.313 88.6883Z" fill="#546667"/>
<path d="M162.313 88.688L164.94 89.6272L164.807 90.7623C162.419 92.4015 159.648 93.8013 159.092 96.7008C158.368 96.2972 153.646 94.6677 152.576 94.2806C153.696 92.6552 160.253 89.6939 162.313 88.688Z" fill="#5F7474"/>
<path d="M161.057 97.391C162.454 95.457 162.757 95.3401 164.99 94.4531C167.877 94.7722 166.894 94.2847 168.83 96.1184L164.532 98.3L161.057 97.391Z" fill="#5F7474"/>
<path d="M200.259 116.702C206.343 113.94 211.025 111.717 216.834 108.467L217.048 124.209C211.465 124.673 207.031 124.825 201.421 124.87L200.259 116.702Z" fill="#5F7474"/>
<path d="M227.807 91.168C228.996 93.4273 230.357 95.7883 231.168 98.1968C223.592 102.395 215.899 106.397 208.11 110.196C207.91 107.962 207.402 107.333 206.205 105.51L205.82 104.927L206.315 103.054L223.523 94.1293C225.744 93.0931 226.095 92.9494 227.807 91.168Z" fill="#5F7474"/>
<path d="M227.807 91.168C228.996 93.4273 230.357 95.7883 231.168 98.1968C227.566 97.7905 225.524 97.5457 223.523 94.1293C225.744 93.0931 226.095 92.9494 227.807 91.168Z" fill="#798788"/>
<path d="M174.441 82.5276C178.014 80.7915 181.762 78.8904 185.347 77.2334C184.211 84.287 184.95 88.4653 178.036 91.7951C176.855 88.0569 176.243 86.0967 174.441 82.5276Z" fill="#5F7474"/>
<path d="M167.119 66.2679C169.223 62.203 172.207 50.6762 172.166 46.1699L174.063 48.1006C173.746 52.0245 171.681 66.0437 167.119 66.2679Z" fill="#B4C2BF"/>
<path d="M150.389 103.601C148.774 104.359 148.692 104.448 146.947 104.452L146.331 103.141C147.511 98.3051 152.678 98.3745 156.557 98.3223L156.602 99.7544C155.198 100.734 150.922 102.978 150.389 103.601Z" fill="#5F7474"/>
<path d="M105.829 104.428C104.017 100.296 103.496 95.7127 104.334 91.2794C106.575 79.7841 117.276 71.7727 129.062 74.657C131.868 75.3439 133.794 75.7482 135.35 78.2942L134.248 79.8089C128.521 83.3739 114.789 77.4011 111.414 90.0322C109.807 96.0455 109.695 99.9508 114.113 104.898C115.297 106.285 116.739 108.08 118.566 108.616C123.284 108.974 130.687 107.504 131.923 108.158L132.096 107.837C139.151 104.148 136.143 101.237 145.874 97.2254C142.058 120.3 113.413 124.829 105.829 104.428Z" fill="#798788"/>
<path d="M105.829 104.428C104.017 100.296 103.496 95.7127 104.334 91.2794C106.575 79.7841 117.276 71.7727 129.062 74.657C131.868 75.3439 133.794 75.7482 135.35 78.2942L134.248 79.8089C129.143 76.8084 126.275 75.61 120.117 77.168C115.33 78.4138 111.229 81.5003 108.706 85.7556C103.728 94.1114 107.135 98.9841 105.829 104.428Z" fill="#B4C2BF"/>
<path d="M118.566 108.616C123.284 108.974 130.687 107.505 131.923 108.158C127.122 110.794 123.597 110.696 118.566 108.616Z" fill="#141F1E"/>
<path d="M265.413 0.360308C270.548 0.0918172 274.213 0.27079 278.86 2.81076C283.982 5.58794 287.757 10.3297 289.31 15.9456C292.273 27.0265 286.148 40.0436 274.536 42.5972C270.411 43.5034 262.505 43.1198 258.937 40.8494L258.902 40.2135C262.305 36.2607 270.218 37.3333 276.248 34.5831C286.808 26.6712 285.577 12.1739 272.92 7.38383C262.477 3.43018 256.015 17.7975 248.5 21.2819L247.744 20.6837C247.882 10.7457 256.462 3.07375 265.413 0.360308Z" fill="#868B87"/>
<path d="M209.313 64.6073C211.217 63.8331 211.802 63.5113 213.527 62.3975C217.714 64.247 221.062 65.6792 225.38 67.1987C217.405 71.7042 194.449 83.841 186.363 87.3179C187.204 83.8575 188.217 80.3007 188.387 76.7578C189.762 73.5441 204.782 66.9443 209.313 64.6073Z" fill="#506263"/>
<path d="M188.387 76.7579C189.762 73.5443 204.782 66.9444 209.313 64.6074C205.174 70.5795 195.439 76.0704 188.387 76.7579Z" fill="#444E50"/>
<path d="M237.569 64.2574C240.278 63.0727 241.021 62.1315 243.351 62.7551C243.613 65.4455 241.192 67.0104 239.089 68.3208C225.868 75.5855 212.07 81.2235 199.056 88.6924C197.357 89.664 192.648 91.8518 191.368 92.7635C189.166 93.8553 186.862 94.9244 184.788 96.2329C181.894 97.8507 178.492 99.9408 175.384 100.913C173.252 100.487 171.249 100.258 169.47 98.9975C173.488 97.203 177.423 95.2648 181.304 93.1939C199.908 83.269 218.959 74.1651 237.569 64.2574Z" fill="#5F7474"/>
<path d="M237.569 64.2574C240.278 63.0727 241.021 62.1315 243.351 62.7551C243.612 65.4455 241.192 67.0104 239.089 68.3208L237.569 64.2574Z" fill="#798788"/>
<path d="M240.154 48.7693C243.482 47.1487 248.012 44.7877 251.312 43.4194L249.277 49.8921C245.915 59.7455 237.109 61.4183 228.054 65.7423L221.619 62.6463C220.32 62.0453 218.745 60.9899 217.494 60.2178C220.237 58.8929 222.994 57.5886 225.765 56.3056C229.573 53.9322 235.988 50.8897 240.154 48.7693Z" fill="#5F7474"/>
<path d="M240.154 48.7693C243.482 47.1487 248.012 44.7877 251.312 43.4194L249.277 49.8921C245.984 48.9632 242.883 51.1641 240.072 52.951C235.981 55.55 224.211 59.2174 221.619 62.6463C220.32 62.0453 218.745 60.9899 217.494 60.2178C220.237 58.8929 222.994 57.5886 225.765 56.3056C229.573 53.9322 235.988 50.8897 240.154 48.7693Z" fill="#506263"/>
<path d="M240.154 48.7695C237.507 56.3553 232.812 54.6227 225.765 56.3058C229.573 53.9324 235.988 50.89 240.154 48.7695Z" fill="#5A6161"/>
<path d="M229.801 21.7656C234.077 21.7756 237.865 22.976 241.839 24.3147C232.2 30.6816 230.914 26.6474 221.977 31.8334C221.612 32.2827 221.241 32.7265 220.856 33.1648C218.959 35.3502 218.608 35.375 216.202 35.5572C215.391 34.9562 214.614 34.7003 214.566 33.723C214.187 26.0481 224.74 22.7446 229.801 21.7656Z" fill="#798788"/>
<path d="M161.993 56.4405C164.008 56.1338 164.656 55.8458 166.441 56.7031C167.422 58.3492 167.476 58.4028 167.275 60.2413C164.546 64.2621 161.792 61.6116 156.925 63.9727L156.16 64.4636C151.57 67.9928 151.617 70.6908 147.123 73.111C146.248 73.5407 145.461 73.54 144.488 73.6431L143.982 72.6916C144.376 69.4759 146.847 65.9508 148.848 63.4419C152.246 58.8518 156.584 57.4409 161.993 56.4405Z" fill="#798788"/>
<path d="M148.849 63.4418C152.247 58.8517 156.584 57.4408 161.994 56.4404C162.427 60.8071 154.844 61.3929 151.772 63.9919C150.406 64.2325 150.369 63.9547 148.849 63.4418Z" fill="#8BA8A5"/>
<path d="M147.123 73.111C146.248 73.5407 145.461 73.54 144.488 73.6432L143.982 72.6916C144.376 69.4759 146.847 65.9508 148.848 63.4419C150.369 63.9548 150.405 64.2326 151.771 63.9919C149.056 67.6442 148.638 68.842 147.123 73.111Z" fill="#818081"/>
<path d="M238.621 78.4819L242.107 84.2828C243.117 87.1259 243.193 86.0994 242.285 88.3793C238.642 91.6163 237.432 92.308 232.578 92.9289C231.031 91.8205 231.54 92.2963 230.673 90.4358L227.14 83.8098L238.621 78.4819Z" fill="#798788"/>
<path d="M242.107 84.2832C243.118 87.1262 243.193 86.0997 242.286 88.3797C238.642 91.6167 237.432 92.3084 232.578 92.9292C231.031 91.8209 231.54 92.2967 230.674 90.4361C233.871 88.456 238.663 86.0949 242.107 84.2832Z" fill="#5F7474"/>
<path d="M258.064 43.6748L266.19 45.9382C262.719 47.9679 258.497 50.0979 254.895 52.0162L248.996 55.2532C251.918 49.4455 252.544 47.2625 258.064 43.6748Z" fill="#5F7474"/>
<path d="M209.196 86.2998C210.42 87.9039 211.802 90.6142 211.493 92.6521C209.506 94.8557 209.403 94.3538 206.164 95.4106C204.913 93.4724 203.923 92.342 203.696 90.0566C205.422 87.5415 206.048 87.8427 209.196 86.2998Z" fill="#8BA8A5"/>
<path d="M202.486 198.118C208 197.776 211.547 197.479 217.082 198.596L217.618 201.786C211.045 204.244 207.037 202.324 201.18 203.06C202.018 201.008 202.513 200.665 204.184 199.331L204.672 198.945L202.486 198.118Z" fill="#97B0A4"/>
<path d="M62.2525 265.264C72.7809 263.481 95.9462 264.203 107.352 264.236L182.879 264.306L293.284 264.271C311.331 264.27 329.79 264.044 347.844 264.459C352.691 264.571 357.662 266.5 361.8 269.034L360.611 269.956C361.704 271.789 363.608 274.794 364.392 276.651L367.369 280.091C368.277 281.542 370.387 284.768 370.999 286.147L376.925 285.17L380.164 294.128C380.982 298.098 384.44 312.426 384.735 315.349C390.978 334.443 409.114 449.771 404.13 464.889L405.505 465.969C412.909 468.268 415.893 477.346 415.7 484.397C416.903 492.625 415.535 503.757 413.445 511.794C411.919 514.818 411.342 516.283 408.977 518.673C407.203 519.873 405.738 520.713 404.35 522.344L404.095 523.371C403.463 528.449 402.748 537.856 401.724 542.253C400.679 555.271 392.435 594.833 386.33 605.356C384.46 608.281 381.325 611.763 378.589 613.916C374.114 617.96 372.67 618.889 366.854 620.412C345.637 622.076 313.875 621.203 291.792 621.171L166.572 621.155L95.5969 621.088C89.8171 621.099 83.9823 621.232 78.2011 621.147C57.9797 620.853 41.3807 624.882 29.3989 604.203C28.5945 602.704 27.3261 599.46 26.6049 597.769C25.3406 594.32 24.429 591.09 23.4184 587.575C21.0018 578.823 18.9503 567.256 17.1222 558.158L11.6229 522.902L11.7219 521.991C4.09342 517.607 2.01579 513.524 1.17704 504.921C-1.63621 493.212 -0.837323 474.007 8.76224 465.701L10.3345 465.973C10.879 466.804 11.0055 467.607 11.2565 468.57L11.6098 469.175C12.1977 470.045 12.4981 470.905 13.2495 471.064C13.1629 469.587 13.4709 467.462 13.6366 465.937C13.1553 465.413 12.6783 464.87 12.2726 464.284C5.87475 455.031 26.1684 338.748 29.742 322.755C32.2342 311.602 35.9391 289.407 41.8317 280.68C45.6377 275.043 50.9837 271.001 56.6535 267.412L62.2525 265.264Z" fill="#030B04"/>
<path d="M62.2525 265.264C72.7809 263.481 95.9462 264.203 107.352 264.236L182.879 264.306L293.284 264.271C311.331 264.27 329.79 264.044 347.844 264.459C352.691 264.571 357.662 266.5 361.8 269.034L360.611 269.956C361.704 271.789 363.608 274.794 364.392 276.651L367.369 280.091C368.277 281.542 370.387 284.768 370.999 286.147L376.925 285.17L380.164 294.128C380.982 298.098 384.44 312.426 384.735 315.349C390.978 334.443 409.114 449.771 404.13 464.889L405.505 465.969C412.909 468.268 415.893 477.346 415.7 484.397C416.903 492.625 415.535 503.757 413.445 511.794C411.919 514.818 411.342 516.283 408.977 518.673C407.203 519.873 405.738 520.713 404.35 522.344L404.095 523.371C403.463 528.449 402.748 537.856 401.724 542.253C400.679 555.271 392.435 594.833 386.33 605.356C384.46 608.281 381.325 611.763 378.589 613.916C374.114 617.96 372.67 618.889 366.854 620.412C367.761 617.741 368.559 617.138 367.61 615.197C362.295 615.683 354.087 615.246 348.58 615.132C337.298 614.897 325.28 616.279 314.487 613.084L316.872 612.866C318.062 612.109 319.636 610.614 320.743 609.64C321.032 599.521 315.38 600.418 307.673 600.89C307.921 596.45 307.784 590.495 307.811 585.94C308.327 583.697 308.175 559.358 308.196 555.475C308.333 525.75 307.605 495.411 308.079 465.696C309.44 471.232 313.118 470.65 318.323 469.831C319.622 468.97 319.767 468.947 320.516 467.628C320.365 467.558 320.213 467.49 320.062 467.419C317.023 465.971 314.865 464.262 313.751 460.956C311.613 454.622 311.895 337.331 312.878 323.387C313.07 320.736 313.744 318.656 314.885 316.269C317.395 313.516 318.027 312.797 321.506 311.377C320.798 309.841 320.09 307.853 319.464 306.241C319.519 296.794 319.189 292.12 311.365 285.687C310.066 284.292 308.636 283.199 307.158 281.993C304.738 281.221 301.919 281.116 299.362 281.113C256.228 281.065 213.025 281.088 169.894 281.068L132.157 281.057C126.891 281.057 114.324 280.752 109.684 281.756C103.315 286.125 101.951 289.99 100.536 297.654C98.3813 309.319 103.594 309.337 112.859 309.468C113.582 323.63 113.281 339.663 113.295 353.956L113.28 428.144C113.252 485.097 114.059 544.076 113.008 600.849C105.037 600.733 95.0806 598.587 95.1768 609.469C92.6922 610.507 48.7878 609.581 41.6137 609.649C39.4687 609.351 38.311 609.405 36.5998 608.101C33.9254 606.672 32.3462 605.481 29.3989 604.203C28.5945 602.704 27.3261 599.46 26.6049 597.769C25.3406 594.32 24.429 591.09 23.4184 587.575C21.0018 578.823 18.9503 567.256 17.1222 558.158L11.6229 522.902L11.7219 521.991C4.09342 517.607 2.01579 513.524 1.17704 504.921C-1.63621 493.212 -0.837323 474.007 8.76224 465.701L10.3345 465.973C10.879 466.804 11.0055 467.607 11.2565 468.57L11.6098 469.175C12.1977 470.045 12.4981 470.905 13.2495 471.064C13.1629 469.587 13.4709 467.462 13.6366 465.937C13.1553 465.413 12.6783 464.87 12.2726 464.284C5.87475 455.031 26.1684 338.748 29.742 322.755C32.2342 311.602 35.9391 289.407 41.8317 280.68C45.6377 275.043 50.9837 271.001 56.6535 267.412L62.2525 265.264Z" fill="#116EC2"/>
<path d="M321.506 311.376C327.838 310.032 357.518 309.458 361.024 313.513C369.123 322.874 373.09 350.661 374.664 363.162C376.795 380.087 390.593 450.71 384.035 464.043C379.477 468.442 370.601 469.641 364.599 469.131C352.733 468.123 331.145 470.74 320.517 467.628C320.365 467.558 320.214 467.49 320.063 467.419C317.024 465.971 314.865 464.262 313.751 460.956C311.613 454.622 311.895 337.331 312.878 323.387C313.071 320.735 313.745 318.656 314.886 316.268C317.395 313.516 318.028 312.797 321.506 311.376Z" fill="#2B2B2B"/>
<path d="M318.997 315.275C319.306 315.036 320.269 314.345 320.537 314.233C325.672 312.046 352.994 312.912 357.6 314.059C359.236 315.55 363.189 319.015 363.664 320.914C369.831 345.647 374.052 372.711 377.441 397.921C379.847 415.838 385.32 443.086 383.821 460.338L377.173 466.194C367.039 466.607 324.875 468.772 318.694 463.57C315.848 461.171 315.422 458.159 315.284 454.651C314.191 427.067 315.181 399.017 315.188 371.386L315.181 339.537C315.167 333.41 313.799 320.848 317.828 316.49C318.213 316.079 318.598 315.674 318.997 315.275Z" fill="#2B2B2B"/>
<path d="M357.6 314.06C359.236 315.55 363.189 319.015 363.664 320.915C369.831 345.647 374.052 372.712 377.441 397.921C379.847 415.838 385.32 443.086 383.821 460.338L377.173 466.194C367.039 466.608 324.875 468.772 318.694 463.571C315.848 461.171 315.422 458.159 315.284 454.652C314.191 427.067 315.181 399.017 315.188 371.386L315.181 339.537C315.167 333.41 313.799 320.849 317.828 316.49C318.213 316.079 318.598 315.674 318.997 315.275C319.959 316.686 320.66 317.969 322.015 318.989C320.88 320.893 319.925 322.685 319.87 324.93C319.526 339.978 319.801 355.466 319.787 370.52V424.401C319.787 434.286 318.282 446.706 320.757 456.157C321.231 457.953 321.843 459.838 323.514 460.85C327.432 463.226 368.737 463.089 373.935 461.529C375.351 461.105 377.063 460.27 377.792 458.942C382.914 449.545 364.509 340.581 359.49 325.148C358.982 323.589 358.219 322.117 357.421 320.689L357.6 314.06Z" fill="#5A6161"/>
<path d="M318.997 315.275C319.306 315.036 320.269 314.345 320.537 314.233C325.673 312.046 352.994 312.912 357.6 314.059L357.421 320.689L353.764 317.175C346.662 317.266 326.745 315.451 322.015 318.988C320.661 317.969 319.96 316.686 318.997 315.275Z" fill="#5A6161"/>
<path d="M324.449 319.423C329.53 319.225 351.571 317.89 354.823 320.728C363.389 328.195 374.128 425.119 376.122 444.002C376.685 449.372 378.019 455.562 374.403 460.029C368.8 460.654 329.22 460.6 324.484 459.299C322.586 457.153 322.015 451.491 322.009 448.573C321.912 407.086 321.397 365.529 322.194 324.057C322.235 322.128 323.198 320.795 324.449 319.423Z" fill="#1AA5D9"/>
<path d="M405.504 465.969C412.909 468.268 415.893 477.346 415.7 484.397C416.903 492.625 415.535 503.757 413.445 511.794C411.919 514.818 411.341 516.283 408.976 518.673C407.203 519.873 405.738 520.713 404.349 522.344C402.926 512.657 405.401 479.717 404.267 467.91C404.618 467.313 404.913 466.803 405.161 466.38L405.504 465.969Z" fill="#3F4D4D"/>
<path d="M412.215 482.127C412.765 485.907 412.573 488.25 414.174 491.572C415.914 490.455 415.666 486.423 415.701 484.397C416.904 492.625 415.536 503.757 413.446 511.794C412.222 510.326 409.431 507.72 407.966 506.274C405.691 494.319 412.518 493.739 412.215 482.127Z" fill="#444E50"/>
<path d="M405.505 465.969C412.909 468.268 415.893 477.346 415.7 484.397C415.666 486.424 415.914 490.455 414.174 491.572C412.572 488.25 412.765 485.907 412.215 482.127C411.94 476.061 406.797 472.239 405.161 466.38L405.505 465.969Z" fill="#727A7A"/>
<path d="M407.966 506.274C409.43 507.72 412.221 510.326 413.445 511.794C411.919 514.818 411.341 516.283 408.976 518.673C407.959 516.776 408.041 509.069 407.966 506.274Z" fill="#5A6161"/>
<path d="M401.346 520.052C403.484 510.399 399.331 470.668 404.13 464.889L405.505 465.969L405.161 466.38C404.914 466.804 404.618 467.313 404.268 467.91C405.402 479.717 402.927 512.657 404.35 522.344L404.096 523.372L401.346 520.052Z" fill="#141F1E"/>
<path d="M401.346 520.052L404.096 523.371C403.463 528.449 402.748 537.856 401.724 542.253C399.4 539.228 399.909 523.222 401.346 520.052Z" fill="#116EC2"/>
<path d="M367.61 615.196C371.549 613.491 374.375 613.521 378.589 613.915C374.113 617.96 372.67 618.889 366.854 620.411C367.761 617.74 368.558 617.138 367.61 615.196Z" fill="#116EC2"/>
<path d="M1.17704 504.921C-1.63621 493.213 -0.837323 474.007 8.76224 465.701L10.3345 465.973C10.879 466.804 11.0055 467.607 11.2565 468.571L11.6098 469.176C11.405 478.786 11.4469 488.4 11.7357 498.008C11.8491 502.67 12.4349 518.375 11.7219 521.991C4.09342 517.607 2.01579 513.524 1.17704 504.921Z" fill="#3D4E4E"/>
<path d="M1.17704 504.921C-1.63621 493.213 -0.837323 474.007 8.76224 465.701L10.3345 465.973C10.879 466.804 11.0055 467.607 11.2565 468.571L9.69312 468.301C-1.48151 484.059 5.79841 498.743 1.17704 504.921Z" fill="#798788"/>
<path d="M13.6367 465.937C14.5875 471.883 15.1994 515.582 14.4734 521.169C13.2765 522.383 13.2291 522.404 11.6231 522.902L11.722 521.991C12.435 518.375 11.8492 502.67 11.7358 498.007C11.4471 488.399 11.4051 478.785 11.61 469.175C12.1978 470.045 12.4982 470.905 13.2497 471.063C13.163 469.587 13.471 467.462 13.6367 465.937Z" fill="#141F1E"/>
<path d="M62.2528 265.264C72.7812 263.481 95.9465 264.203 107.352 264.236L182.88 264.306L293.284 264.271C311.331 264.27 329.791 264.044 347.844 264.459C352.691 264.571 357.662 266.5 361.801 269.034L360.611 269.956C356.699 269.78 354.252 270.325 351.722 270.271L345.823 270.627C320.228 271.354 290.864 270.607 264.987 270.602L109.045 270.525C98.5184 270.67 74.1947 270.198 65.3259 271.192C61.8795 270.608 57.9972 271.824 55.4961 269.811L56.6538 267.412L62.2528 265.264Z" fill="#116EC2"/>
<path d="M106.418 268.224C177.129 269.536 248.611 265.86 319.19 269.768C328.354 270.275 343.603 268.728 351.722 270.271L345.823 270.627C320.228 271.354 290.865 270.607 264.987 270.602L109.045 270.526C108.281 269.722 107.284 268.946 106.418 268.224Z" fill="#116EC2"/>
<path d="M56.6538 267.412L62.2528 265.264C73.237 270.417 93.4626 267.538 106.418 268.224C107.283 268.946 108.281 269.722 109.045 270.525C98.5185 270.67 74.1947 270.197 65.326 271.192C61.8795 270.608 57.9972 271.823 55.4961 269.811L56.6538 267.412Z" fill="#116EC2"/>
<path d="M351.722 270.271C354.252 270.325 356.699 269.78 360.611 269.956C361.704 271.788 363.609 274.794 364.393 276.651C361.663 276.46 356.493 271.608 345.823 270.627L351.722 270.271Z" fill="#116EC2"/>
<path d="M96.6928 467.172C90.8168 469.891 49.7228 469.844 42.0015 468.488C38.7476 467.917 33.6071 466.468 31.7942 463.413C25.3544 452.558 43.3978 347.952 48.0336 329.684C49.4114 324.255 50.7871 316.008 55.9853 313.037C62.4416 309.346 87.0108 309.486 94.5121 311.747C97.3212 312.594 99.6154 314.414 100.987 317.017C102.248 319.411 102.813 322.218 103.01 324.897C104.435 344.241 103.215 367.978 103.195 387.787C103.172 410.138 104.389 433.171 102.783 455.441C102.572 458.367 101.896 461.059 101.034 463.854C99.8258 464.804 97.929 466.396 96.6928 467.172Z" fill="#2B2B2B"/>
<path d="M54.053 318.236C61.3274 309.988 68.0566 313.762 77.4603 313.328C89.7851 312.76 100.686 310.858 100.68 327.364C100.628 370.83 101.003 414.348 100.518 457.798C100.486 460.595 96.504 465.115 94.0187 465.942C88.045 466.964 39.326 468.029 37.4512 464.377L38.7774 463.534C37.3694 463.114 34.0453 462.413 33.2636 461.174C28.9509 454.336 42.3826 369.007 45.0714 357.413C48.3989 347.55 48.3467 324.921 54.053 318.236Z" fill="#2B2B2B"/>
<path d="M54.0526 318.236C61.327 309.988 68.0563 313.762 77.4599 313.328C89.7847 312.76 100.686 310.858 100.679 327.364C100.628 370.83 101.003 414.348 100.517 457.798C100.486 460.595 96.5036 465.115 94.0183 465.942C83.4583 465.358 47.5096 467.715 41.4844 463.592L41.6006 462.239C50.3071 462.309 88.7472 464.735 94.2438 459.792C96.1399 458.087 96.5297 453.664 96.6714 451.283C97.1306 443.574 96.648 435.606 96.6054 427.863L96.6514 388.082L96.7525 347.017C96.8116 308.809 98.0972 318.217 61.6673 317.096C58.6842 317.27 56.9958 317.624 54.0526 318.236Z" fill="#5A6161"/>
<path d="M45.0714 357.413C46.0264 359.769 46.6458 360.269 48.3501 362.041L48.8059 364.472C46.1364 375.384 34.7644 452.448 38.1861 458.546C38.9692 459.941 40.4246 461.158 41.601 462.239L41.4848 463.592C47.51 467.715 83.4587 465.358 94.0187 465.942C88.045 466.964 39.326 468.029 37.4512 464.377L38.7774 463.534C37.3694 463.114 34.0453 462.413 33.2636 461.174C28.9509 454.336 42.3826 369.007 45.0714 357.413Z" fill="#506263"/>
<path d="M54.0528 318.236C56.996 317.624 58.6845 317.27 61.6675 317.096C60.7174 317.91 57.986 320.284 57.6608 321.292C53.982 332.685 50.4269 352.996 48.8058 364.472L48.35 362.041C46.6457 360.269 46.0262 359.77 45.0713 357.413C48.3988 347.55 48.3466 324.921 54.0528 318.236Z" fill="#576260"/>
<path d="M58.1137 324.6C61.5794 317.468 67.7861 319.673 74.8337 319.257C80.5351 318.921 89.8364 318.097 93.753 322.712C95.1267 330.282 95.4463 449.477 93.9758 456.327C93.1556 458.316 93.0387 458.567 91.3509 459.883C89.4747 460.265 81.2501 460.612 79.286 460.391C72.2913 459.607 44.2365 462.599 40.1019 457.471C38.5406 451.742 41.3119 432.558 42.1933 425.708C42.3528 420.146 44.1217 409.435 44.7955 403.561C47.826 377.125 53.2001 350.781 58.1137 324.6Z" fill="#1AA5D9"/>
<path d="M390.408 436.099L391.198 436.869C392.587 441.895 393.371 458.386 392.642 463.726L390.724 462.089C388.709 457.18 390.126 442.379 390.408 436.099Z" fill="#116EC2"/>
<path d="M101.034 463.854C102.956 464.894 104.291 465.334 105.065 467.399L104.663 468.876C101.904 470.325 98.3252 469.925 96.6924 467.172C97.9285 466.395 99.8253 464.804 101.034 463.854Z" fill="#116EC2"/>
<path d="M296.289 601.076C297.087 601.34 299.823 601.816 300.799 602.011C303.858 600.397 300.586 601.473 302.58 598.093C303.989 601.103 304.126 600.884 307.674 600.89C315.381 600.418 321.032 599.521 320.743 609.64C319.636 610.614 318.062 612.109 316.873 612.866L314.487 613.084C325.281 616.279 337.298 614.897 348.58 615.132C354.087 615.246 362.296 615.683 367.61 615.196C368.559 617.138 367.762 617.74 366.854 620.412C345.638 622.076 313.875 621.203 291.793 621.171L166.572 621.155L95.5974 621.088C89.8176 621.098 83.9828 621.232 78.2016 621.147C57.9802 620.853 41.3812 624.882 29.3994 604.202C32.3467 605.481 33.9259 606.672 36.6003 608.101C38.3115 609.404 39.4692 609.351 41.6142 609.649C48.7883 609.58 92.6927 610.507 95.1774 609.469C95.0811 598.587 105.038 600.733 113.008 600.849C114.424 602.103 113.688 601.825 115.688 601.787L116.117 601.315L119.166 600.494C131.961 601.055 146.268 600.659 159.228 600.629C164.624 600.621 171.663 600.819 176.925 600.545C204.652 600.707 232.379 600.723 260.099 600.591C266.39 600.579 291.992 600.208 296.289 601.076Z" fill="#116EC2"/>
<path d="M296.289 601.076C297.087 601.34 299.823 601.816 300.799 602.011C303.858 600.397 300.586 601.473 302.58 598.093C303.989 601.103 304.127 600.884 307.674 600.89C315.381 600.418 321.032 599.521 320.743 609.64C319.637 610.614 318.062 612.109 316.873 612.866L314.487 613.084C309.53 612.654 297.554 612.985 292.205 612.982L247.016 612.979L101.708 612.963C99.8566 612.448 97.2159 610.508 95.1775 609.469C95.0812 598.587 105.038 600.733 113.008 600.849C114.424 602.103 113.688 601.825 115.688 601.787L116.117 601.315L119.166 600.494C131.961 601.055 146.268 600.659 159.228 600.629C164.624 600.621 171.663 600.819 176.925 600.545C204.652 600.707 232.379 600.723 260.099 600.591C266.39 600.579 291.992 600.208 296.289 601.076Z" fill="#2B2B2B"/>
<path d="M215.212 603.239C216.567 603.128 217.921 603.043 219.275 602.987C249.463 601.878 280.669 603.848 310.96 602.896C314.212 602.794 318.427 603.573 318.468 607.421C316.832 609.807 316.921 610.307 313.834 610.318C293.078 610.399 272.309 610.353 251.56 610.337L142.405 610.267C130.175 610.273 117.884 610.117 105.669 610.725C104.249 610.795 101.143 610.034 100.073 609.105C98.1447 607.431 98.3626 607.662 98.1543 605.654C99.4702 603.767 103.539 603.118 105.676 603.155C135.812 603.672 168.916 601.414 198.726 603.243C202.184 603.081 211.981 602.864 215.212 603.239Z" fill="#8BA8A5"/>
<path d="M198.725 603.243C202.183 603.081 211.98 602.864 215.211 603.239C220.629 603.947 231.223 603.693 237.04 603.718C221.035 606.758 193.569 604.841 176.548 603.936C177.052 603.675 194.999 603.65 197.962 603.329L198.725 603.243Z" fill="#B4C2BF"/>
<path d="M319.465 306.241C320.09 307.853 320.799 309.841 321.507 311.377C318.028 312.797 317.395 313.516 314.886 316.269C313.745 318.656 313.071 320.736 312.879 323.387C311.895 337.331 311.614 454.622 313.752 460.956C314.865 464.262 317.024 465.971 320.063 467.419C320.214 467.49 320.365 467.558 320.517 467.628C319.767 468.947 319.623 468.97 318.324 469.831C313.119 470.65 309.441 471.232 308.08 465.696C307.605 495.411 308.334 525.75 308.197 555.475C308.176 559.358 308.327 583.697 307.812 585.94L307.516 585.082L307.172 585.388C306.76 587.971 306.581 588.226 304.835 590.112C303.969 589.386 303.556 582.412 303.109 580.212L302.979 579.59C302.484 574.837 302.848 559.706 302.834 554.372L302.855 497.621L302.862 308.797C307.152 308.759 311.036 308.722 315.333 308.411L316.694 311.657C318.131 309.548 318.489 308.573 319.465 306.241Z" fill="#116EC2"/>
<path d="M307.735 313.551C312.479 314.488 312.087 313.322 314.885 316.268C313.744 318.656 313.07 320.736 312.878 323.387C311.895 337.331 311.613 454.622 313.751 460.956C314.865 464.262 317.024 465.971 320.062 467.419C320.214 467.49 320.365 467.558 320.516 467.628C319.767 468.946 319.622 468.97 318.323 469.831C313.118 470.65 309.44 471.232 308.079 465.696C308.938 452.777 307.928 426.223 307.907 412.599C308.038 379.583 307.983 346.566 307.735 313.551Z" fill="#116EC2"/>
<path d="M319.464 306.241C320.09 307.853 320.798 309.841 321.506 311.377C318.027 312.797 317.395 313.516 314.885 316.269C312.087 313.322 312.479 314.488 307.735 313.551C311.606 312.226 312.995 314.387 316.693 311.657C318.13 309.548 318.488 308.573 319.464 306.241Z" fill="#116EC2"/>
<path d="M311.365 285.688C319.189 292.12 319.519 296.794 319.464 306.241C318.488 308.573 318.13 309.548 316.693 311.657L315.332 308.411C315.476 297.966 315.91 295.042 311.365 285.688Z" fill="#116EC2"/>
<path d="M302.978 579.59L303.108 580.212C303.555 582.412 303.968 589.386 304.834 590.111C306.58 588.226 306.759 587.971 307.172 585.388L307.515 585.082L307.811 585.939C307.784 590.494 307.921 596.45 307.674 600.89C304.126 600.883 303.988 601.103 302.579 598.093C303.095 592.645 302.957 585.209 302.978 579.59Z" fill="#116EC2"/>
<path d="M209.691 311.414L209.938 309.487C211.637 308.622 290.17 309.106 299.999 309.03L300.191 314.957L300.259 411.336C300.287 429.944 300.705 450.026 300.122 468.555C288.627 469.01 273.966 468.731 262.244 468.758C251.058 468.784 236.889 469.061 225.895 468.707C222.235 468.759 213.022 469.503 210.308 468.182C209.622 467.849 209.787 466.497 209.732 465.685C209.677 450.683 209.355 435.096 209.807 420.144C209.328 409.31 209.657 397.497 209.677 386.593C209.156 361.947 209.609 336.146 209.691 311.414Z" fill="#2B2B2B"/>
<path d="M209.691 311.414L209.938 309.487C211.637 308.622 290.17 309.106 299.999 309.03L300.191 314.957L300.259 411.336C300.287 429.944 300.705 450.026 300.122 468.555C288.627 469.01 273.966 468.731 262.244 468.758C251.058 468.784 236.889 469.061 225.895 468.707C222.235 468.759 213.022 469.503 210.308 468.182C209.622 467.849 209.787 466.497 209.732 465.685C209.677 450.683 209.355 435.096 209.807 420.144C210.061 422.19 212.619 397.457 213.616 400C213.499 401.404 212.12 397.457 213.616 400C217.604 405.086 211.682 427.178 217 425.5C218.899 424.08 220.062 418.446 221.001 416.5C221.563 432.242 220.5 453.098 220.5 468.898L289.251 468.793V372.52C289.278 354.828 290.074 333.986 289.107 316.516C286.866 316.339 284.131 316.233 281.869 316.234C261.669 316.244 241.215 315.886 221.042 316.273C221.344 343.826 221.329 376.447 221 404C219.842 402.025 217.564 398.434 215 397.5C212.313 397.554 212.371 419.013 209.807 420.144C210.308 418.043 210.267 388.699 209.677 386.593C209.156 361.947 209.609 336.146 209.691 311.414Z" fill="#506263"/>
<path d="M223.197 318.117C244.4 317.978 265.603 317.963 286.806 318.071L286.725 424.177C286.684 433.107 286.731 442.038 286.875 450.969C286.936 455.68 287.25 464.501 286.568 469L223.217 468.942C222.672 449.553 223.32 430.689 223.361 411.355L223.197 318.117Z" fill="#1AA5D9"/>
<path d="M215 399C223.055 400.106 219.452 417.692 217.368 422L216.146 421.949C215.101 420.567 216.906 415.207 217.381 413.091C218.318 408.929 215 401.29 215 399Z" fill="#B4C2BF"/>
<path d="M115.667 309.222C124.141 308.889 205.049 308.692 207.07 309.818L207.312 312.217C206.018 348.213 208.108 385.746 207.188 421.848C206.883 433.95 207.901 448.336 207.132 460.125C207.201 463.155 207.291 465.799 206.994 468.833C198.922 468.843 118.795 469.332 116.449 468.341C115.729 466.114 116.147 452.028 116.175 449.152C116.191 440.33 116.114 431.508 115.945 422.686C114.938 416.084 115.717 395.072 115.728 387.185L115.667 309.222Z" fill="#506263"/>
<path d="M116.43 422.491C117.234 417.593 116.83 398.161 116.823 392.439L116.833 333.219C116.833 330.024 116.569 312.783 117.033 310.962L117.631 311.678C118.026 312.293 118.46 313.203 118.429 313.91C117.992 323.685 118.124 333.554 118.165 343.328L118.226 425.617C118.19 437.059 117.347 455.872 118.333 467.131L117.906 467.747L116.835 467.962C116.256 465.744 116.592 451.714 116.615 448.851C116.628 440.063 116.566 431.277 116.43 422.491Z" fill="#97B0A4"/>
<path d="M169.43 466.727C172.141 464.23 178.47 464.964 181.663 465.463L182.43 466.309L181.722 466.898C177.494 467.053 173.649 466.901 169.43 466.727Z" fill="#5A6161"/>
<path d="M129.77 316.078C145.466 315.794 161.403 316.403 177.133 316.08C183.052 315.959 189.269 315.979 195.171 316.135C196.349 336.511 194.733 358.697 195.336 379.208C195.541 386.237 194.747 395.965 195.479 402.62C197.45 401.181 195.411 397.092 202.44 397.432C204.726 398.583 204.165 397.975 205 399.663C204.671 400.221 203.871 401.818 203.501 402.214C199.531 406.425 206.513 423.381 200.647 425.799C197.478 424.857 196.451 422.639 195.431 420.358C195.069 430.315 195.356 440.924 195.418 450.929V468.863C173.037 469.16 149.58 468.882 127.137 468.882L127.096 362.862L127.018 332.397C127.011 327.934 126.914 322.946 127.258 318.462C127.355 317.192 128.603 316.719 129.77 316.078Z" fill="#2B2B2B"/>
<path d="M129.435 318.09C150.777 317.972 172.12 317.97 193.462 318.083C193.897 324.19 193.531 331.304 193.558 337.521C193.641 352.292 193.593 367.063 193.407 381.833L194 468.919L129.257 469C128.767 449.753 129.129 429.656 129.126 410.358C129.006 379.602 129.11 348.845 129.435 318.09Z" fill="#1AA5D9"/>
<path d="M200.732 399C203.323 400.18 201.28 400.192 200.417 402.454C197.998 408.798 198.509 415.95 201.851 421.936C199.688 422.005 200.664 422.166 198.824 421.421C194.821 417.147 196.038 409.109 196.729 404.183C197.044 401.905 198.381 400.67 200.732 399Z" fill="#B4C2BF"/>
<path d="M110.252 284.206C119.907 283.737 132.089 284.065 141.875 284.068L200.039 284.081L269.477 284.063C275.375 284.061 303.425 283.385 307.048 284.992L308.822 287.765C312.638 293.705 312.459 297.755 312.012 304.839C306.093 306.155 260.69 305.46 252.619 305.398C205.553 305.039 157.456 306.261 110.531 305.389C108.395 305.648 107.009 306.076 105.122 305.159C100.192 298.919 105.59 289.096 110.252 284.206Z" fill="#116EC2"/>
<path d="M110.252 284.206C119.907 283.737 132.089 284.065 141.875 284.068L200.039 284.081L269.477 284.063C275.375 284.061 303.425 283.385 307.048 284.992C306.595 287.114 306.423 289.914 305.068 291.088L304.312 289.951C302.91 288.443 302.8 288.308 300.146 288.29C290.239 288.226 280.236 288.268 270.329 288.268L210.874 288.25C179.789 288.224 148.699 288.07 117.613 288.299C113.465 288.33 112.137 289.576 110.414 293.375C107.203 304.161 112.005 303.607 121.139 304.171C117.518 305.471 112.809 304.096 110.531 305.389C108.395 305.648 107.009 306.076 105.122 305.159C100.192 298.919 105.59 289.096 110.252 284.206Z" fill="#116EC2"/>
<path d="M127.775 241.231C141.675 237.612 167.279 224.791 179.234 226.27C193.102 227.987 236.009 223.67 245.709 226.608C255.431 229.812 265.104 233.172 274.722 236.685C280.181 238.701 285.688 241.143 291.49 241.408L291.167 245.107L291.298 247.011L291.029 247.777L291.311 252.82L130.644 252.996L127.848 253.162C127.541 249.026 127.386 247.006 127.733 242.803L127.775 241.231Z" fill="#8BA8A5"/>
<path d="M127.775 241.231C141.675 237.612 167.279 224.791 179.235 226.27C193.102 227.987 236.009 223.67 245.71 226.608L244.857 228.035L243.42 228.372C239.399 230.201 234.827 231.797 230.33 231.576L230.337 230.482C229.114 230.551 229.609 230.309 228.804 231.203L229.086 230.893C230.729 231.052 235.287 231.33 236.49 231.967C231.258 233.262 207.609 232.507 201.352 232.239C193.769 232.558 180.618 232.968 173.245 232.593C172.386 232.363 169.236 231.997 168.179 231.847C164.643 230.672 155.613 235.348 151.844 236.373C144.068 238.485 135.662 241.449 127.733 242.803L127.775 241.231Z" fill="#C5D7CE"/>
<path d="M168.179 231.847C169.251 231.63 169.027 231.679 169.951 231.275C177.736 227.88 194.828 229.287 203.573 229.46L208.151 230.416C206.185 230.795 203.126 231.398 201.352 232.239C193.769 232.558 180.618 232.968 173.245 232.593C172.386 232.363 169.235 231.997 168.179 231.847Z" fill="#97B0A4"/>
<path d="M203.572 229.46C219.22 229.597 228.247 229.073 243.42 228.372C239.398 230.201 234.826 231.797 230.33 231.576L230.337 230.481C229.113 230.551 229.608 230.309 228.803 231.203L229.085 230.893C230.728 231.051 235.287 231.33 236.49 231.967C231.258 233.262 207.608 232.507 201.352 232.239C203.125 231.399 206.185 230.795 208.151 230.416L203.572 229.46Z" fill="#B4C2BF"/>
<path d="M245.709 226.608C255.431 229.812 265.104 233.172 274.722 236.685C280.181 238.701 285.687 241.143 291.49 241.408L291.167 245.107C280.937 244.548 256.854 247.312 248.04 245.595L249.291 246.618L248.776 247.172L247.057 247.003C245.008 245.579 245.661 246.39 244.905 243.342C245.008 239.92 245.414 236.676 243.344 233.941C241.096 232.159 239.364 232.248 236.49 231.967C235.287 231.33 230.729 231.052 229.086 230.893L228.804 231.204C229.608 230.309 229.113 230.551 230.337 230.482L230.33 231.576C234.826 231.797 239.398 230.201 243.42 228.372L244.857 228.035L245.709 226.608Z" fill="#8BA8A5"/>
<path d="M245.709 226.608C255.431 229.812 265.104 233.172 274.722 236.685C270.047 240.897 250.673 234.007 247.016 240.778C247.194 242.532 247.174 244.106 248.04 245.595L249.291 246.618L248.776 247.172L247.057 247.003C245.008 245.579 245.661 246.39 244.905 243.342C245.008 239.92 245.414 236.676 243.344 233.941C241.096 232.159 239.364 232.248 236.49 231.967C235.287 231.33 230.729 231.052 229.086 230.893L228.804 231.204C229.608 230.309 229.113 230.551 230.337 230.482L230.33 231.576C234.826 231.797 239.398 230.201 243.42 228.372L244.857 228.035L245.709 226.608Z" fill="#97B3AC"/>
<path d="M127.733 242.803C135.662 241.449 144.068 238.486 151.844 236.373C155.613 235.348 164.642 230.672 168.179 231.847C169.235 231.997 172.386 232.364 173.245 232.593C170.587 235.838 171.603 242.211 171.875 246.533L170.835 247.843C159.806 249.033 140.949 245.24 129.624 249.028C128.632 250.437 128.826 249.745 129.165 251.765L130.644 252.996L127.848 253.162C127.541 249.026 127.386 247.006 127.733 242.803Z" fill="#97B0A4"/>
<path d="M244.905 243.342C245.661 246.39 245.008 245.579 247.057 247.003L248.775 247.172L249.291 246.618L248.04 245.595C256.854 247.312 280.937 244.548 291.167 245.107L291.297 247.011L291.029 247.777C279.074 247.298 258.442 246.13 246.685 248.913C245.475 249.2 246.376 249.518 244.169 249.171L243.626 248.031C244.073 246.746 244.54 244.717 244.905 243.342Z" fill="#97B0A4"/>
<path d="M108.284 240.889C111.639 240.711 115.08 240.368 118.375 240.958L127.775 241.231L127.733 242.802C127.386 247.005 127.541 249.026 127.848 253.162L118.292 252.817L104.173 253.22L103.776 247.408C103.807 245.334 103.751 244.129 104.273 242.077C106.053 240.646 105.632 241.074 108.284 240.889Z" fill="#97B0A4"/>
<path d="M118.375 240.958L127.775 241.231L127.733 242.803C127.386 247.006 127.541 249.026 127.848 253.162L118.292 252.817C118.449 248.885 118.39 244.898 118.375 240.958Z" fill="#798788"/>
<path d="M103.776 247.408C103.807 245.334 103.751 244.13 104.273 242.077C106.053 240.646 105.632 241.074 108.284 240.889L108.563 241.652C109.361 245.428 109.894 248.579 108.07 252.023C106.887 253.02 105.743 252.993 104.173 253.22L103.776 247.408Z" fill="#C5D7CE"/>
<path d="M103.776 247.408C103.807 245.334 103.751 244.13 104.273 242.077C106.053 240.646 105.632 241.074 108.284 240.889L108.563 241.652C108.242 244.698 108.737 244.887 107.081 246.798L103.776 247.408Z" fill="#E6FCF5"/>
<path d="M201.325 205.822C205.567 205.639 211.005 205.818 215.329 205.845C215.439 211.209 216.257 217.993 216.017 223.042L200.012 223.127C200.149 218.565 200.108 209.841 201.325 205.822Z" fill="#5F7474"/>
<path d="M297.891 241.098C301.452 240.908 307.378 240.03 310.176 241.489C312.816 244.162 312.672 248.928 311.036 252.11C307.165 254.939 303.727 252.533 297.815 252.635L291.311 252.819L291.029 247.777L291.297 247.011L291.167 245.106L291.49 241.408C293.394 241.014 295.89 241.112 297.891 241.098Z" fill="#7A948D"/>
<path d="M291.49 241.408C293.394 241.014 295.89 241.112 297.891 241.098L298.124 241.572C298.062 243.335 298.055 245.707 297.849 247.409L298.056 248.025L298.007 252.174L297.815 252.635L291.311 252.82L291.029 247.777L291.297 247.011L291.167 245.107L291.49 241.408Z" fill="#C5D7CE"/>
<path d="M291.297 247.011C292.803 247.096 296.536 247.204 297.849 247.408L298.056 248.025L298.007 252.174L297.815 252.635L291.311 252.819L291.029 247.777L291.297 247.011Z" fill="#B4C2BF"/>
<path d="M298.125 241.572C301.205 241.608 300.297 241.185 302.284 242.688C303.095 244.746 303.027 246.524 303.109 248.712C301.487 248.335 299.61 247.705 298.056 248.025L297.85 247.408C298.056 245.707 298.063 243.335 298.125 241.572Z" fill="#97B0A4"/>
<path d="M298.056 248.025C299.61 247.705 301.487 248.335 303.109 248.712L302.573 251.341C300.648 252.495 300.442 252.128 298.008 252.174L298.056 248.025Z" fill="#8BA8A5"/>
<path d="M194.098 203.333L198.12 204.654C200.038 207.623 197.935 217.258 197.666 222.551C194.999 222.933 194.174 223.404 192.414 221.54C191.057 216.085 193.033 209.119 194.098 203.333Z" fill="#97B0A4"/>
<path d="M219.852 203.374L221.406 203.999C223.585 206.999 224.376 217.413 224.321 221.324C224.293 223.148 223.798 223.084 222.396 224.26C221.647 223.968 220.113 223.406 219.825 222.737C218.202 218.981 217.082 208.848 217.556 205.118L219.852 203.374Z" fill="#97B0A4"/>
<path d="M296.488 255.649C299.809 255.77 302.854 254.756 305.728 255.856C307.358 258.157 306.828 258.178 306.966 261.515C304.154 261.643 300.07 262.158 297.65 261.045C295.959 258.955 296.529 259.005 296.488 255.649Z" fill="#506263"/>
<path d="M109.349 255.55C112.169 255.416 115.941 254.952 118.435 255.987C120.104 258.177 119.582 258.076 119.808 261.326C116.98 261.528 113.072 262.136 110.59 261.066C108.94 258.948 109.485 258.818 109.349 255.55Z" fill="#5F7474"/>
<path d="M111.569 232.915C115.615 232.746 119.193 232.593 121.064 236.759C120.03 238.173 120.389 237.72 118.1 238.161C114.848 238.32 110.85 238.855 108.312 236.573L108.254 235.013C109.287 233.923 110.205 233.603 111.569 232.915Z" fill="#5F7474"/>
<path d="M369.143 274.485C372.285 277.756 374.987 281.005 376.925 285.169L370.999 286.147C370.387 284.768 368.277 281.542 367.369 280.09C367.61 279.516 368.634 275.837 369.143 274.485Z" fill="#116EC2"/>
<path d="M361.801 269.034C364.771 270.999 366.483 272.153 369.143 274.485C368.634 275.837 367.61 279.516 367.37 280.091L364.393 276.651C363.609 274.794 361.704 271.789 360.611 269.956L361.801 269.034Z" fill="#116EC2"/>
<rect x="36" y="471" width="343" height="130" fill="#116EC2"/>
<path d="M146.8 573.3C136.933 573.3 129.2 571.433 123.6 567.7C118 563.967 115.2 558.4 115.2 551C115.2 546.8 116.033 543.333 117.7 540.6C119.433 537.8 121.667 535.667 124.4 534.2C127.133 532.667 130.267 531.6 133.8 531V534.7C131.4 534.5 129.1 533.9 126.9 532.9C124.767 531.833 123 530.267 121.6 528.2C120.2 526.067 119.5 523.433 119.5 520.3C119.5 515.1 121.7 510.767 126.1 507.3C130.5 503.833 137.4 502.1 146.8 502.1C156.2 502.1 163.1 503.833 167.5 507.3C171.9 510.767 174.1 515.1 174.1 520.3C174.1 523.433 173.4 526.067 172 528.2C170.6 530.267 168.8 531.833 166.6 532.9C164.467 533.9 162.2 534.5 159.8 534.7V531C163.333 531.6 166.467 532.667 169.2 534.2C171.933 535.667 174.133 537.8 175.8 540.6C177.533 543.333 178.4 546.8 178.4 551C178.4 558.4 175.6 563.967 170 567.7C164.4 571.433 156.667 573.3 146.8 573.3ZM146.8 555.3C148.933 555.3 150.6 554.833 151.8 553.9C153 552.967 153.6 551.4 153.6 549.2C153.6 546.933 152.967 545.3 151.7 544.3C150.5 543.233 148.867 542.7 146.8 542.7C144.733 542.7 143.067 543.233 141.8 544.3C140.6 545.3 140 546.933 140 549.2C140 551.4 140.6 552.967 141.8 553.9C143 554.833 144.667 555.3 146.8 555.3ZM146.8 531.1C148.733 531.1 150.2 530.667 151.2 529.8C152.267 528.867 152.8 527.467 152.8 525.6C152.8 523.667 152.267 522.267 151.2 521.4C150.133 520.467 148.667 520 146.8 520C144.933 520 143.467 520.467 142.4 521.4C141.333 522.267 140.8 523.667 140.8 525.6C140.8 527.467 141.3 528.867 142.3 529.8C143.367 530.667 144.867 531.1 146.8 531.1ZM214.778 573.8C204.378 573.8 196.478 570.667 191.078 564.4C185.745 558.133 183.078 549.267 183.078 537.8C183.078 526.333 185.745 517.467 191.078 511.2C196.478 504.933 204.378 501.8 214.778 501.8C225.178 501.8 233.045 504.933 238.378 511.2C243.711 517.467 246.378 526.333 246.378 537.8C246.378 549.267 243.711 558.133 238.378 564.4C233.045 570.667 225.178 573.8 214.778 573.8ZM214.578 554.6C217.045 554.6 218.811 553.267 219.878 550.6C221.011 547.933 221.578 543.7 221.578 537.9C221.578 532.233 221.045 528.033 219.978 525.3C218.911 522.567 217.245 521.2 214.978 521.2C212.511 521.2 210.711 522.567 209.578 525.3C208.445 527.967 207.878 532.167 207.878 537.9C207.878 543.633 208.411 547.867 209.478 550.6C210.611 553.267 212.311 554.6 214.578 554.6ZM274.74 574.1C266.873 574.1 260.94 572.433 256.94 569.1C253.007 565.7 250.84 561.067 250.44 555.2C250.44 554.667 250.573 554.267 250.84 554C251.107 553.733 251.507 553.6 252.04 553.6H264.24C264.773 553.6 265.173 553.733 265.44 554C265.707 554.267 265.873 554.667 265.94 555.2C266.14 556.8 266.74 558 267.74 558.8C268.807 559.533 270.107 559.9 271.64 559.9C273.107 559.9 274.273 559.6 275.14 559C276.007 558.333 276.44 557.467 276.44 556.4C276.44 555.467 276.073 554.667 275.34 554C274.673 553.333 273.773 552.8 272.64 552.4C271.573 551.933 270.04 551.367 268.04 550.7C264.64 549.633 261.807 548.567 259.54 547.5C257.34 546.367 255.407 544.7 253.74 542.5C252.14 540.3 251.34 537.433 251.34 533.9C251.34 530.567 252.173 527.5 253.84 524.7C255.507 521.9 258.14 519.667 261.74 518C265.34 516.267 269.907 515.4 275.44 515.4C282.973 515.4 288.773 517.033 292.84 520.3C296.907 523.567 299.14 527.7 299.54 532.7C299.607 533.233 299.507 533.633 299.24 533.9C298.973 534.167 298.573 534.3 298.04 534.3H285.94C285.407 534.3 285.007 534.167 284.74 533.9C284.473 533.633 284.273 533.233 284.14 532.7C283.873 531.3 283.24 530.267 282.24 529.6C281.307 528.933 280.207 528.6 278.94 528.6C277.673 528.6 276.673 528.9 275.94 529.5C275.207 530.1 274.84 530.867 274.84 531.8C274.84 532.733 275.173 533.5 275.84 534.1C276.573 534.7 277.44 535.2 278.44 535.6C279.507 535.933 281.04 536.4 283.04 537C286.507 538 289.373 539.033 291.64 540.1C293.973 541.167 295.973 542.833 297.64 545.1C299.373 547.367 300.24 550.4 300.24 554.2C300.24 558 299.273 561.4 297.34 564.4C295.407 567.4 292.507 569.767 288.64 571.5C284.84 573.233 280.207 574.1 274.74 574.1Z" fill="white"/>
</g>
<defs>
<clipPath id="clip0_129_625">
<rect width="416" height="621" fill="white"/>
</clipPath>
</defs>
</svg>
